<svg width="32" height="32" viewBox="0 0 32 32" fill="none" xmlns="http://www.w3.org/2000/svg">
<path d="M15.7002 29.9996C22.162 29.9996 27.4003 24.9594 27.4003 18.742C27.4003 12.5246 22.162 7.48438 15.7002 7.48438C9.23834 7.48438 4 12.5246 4 18.742C4 24.9594 9.23834 29.9996 15.7002 29.9996Z" fill="#FFCC00"/>
<path fill-rule="evenodd" clip-rule="evenodd" d="M21.7 7.27697V17.7794C21.7 18.8364 21.6208 19.8221 21.4726 20.3249C21.0984 21.5884 20.2874 22.6913 19.1737 23.4514C18.0599 24.2115 16.71 24.5833 15.3469 24.5054C13.9839 24.4275 12.6892 23.9045 11.6768 23.023C10.6643 22.1414 9.99473 20.9539 9.77856 19.6566C9.56238 18.3594 9.81257 17.03 10.4878 15.8881C11.163 14.7461 12.2229 13.86 13.4923 13.3759C14.7617 12.8919 16.1648 12.839 17.4697 13.226C18.7746 13.6129 19.9033 14.4166 20.6693 15.5042L20.5006 14.5145V2L28 4.30892V9.21674L21.7 7.27697Z" fill="#FF3333"/>
</svg>
